# xmcd
#
# Track frame offsets:
#	150
#	12852
#	26997
#	38806
#	50752
#	64735
#	74058
#	84139
#	98044
#	121592
#	132697
#	144405
#	158448
#	170478
#	186071
#	197811
#
# Disc length: 2803 seconds
#
# Revision: 3
# Processed by: cddbd v1.5.2PL0 Copyright (c) Steve Scherf et al.
# Submitted via: audiograbber 1.83.01
#
DISCID=db0af110
DTITLE=Various Artist - Country Legenden CD 1/2
DYEAR=2007
DGENRE=Country
TTITLE0=Johnny Cash - Ring Of Fire
TTITLE1=Billie Jo Spears - I Will Survive
TTITLE2=Ray Griff - You Ring My Bell
TTITLE3=Tammy Wynette - Stand By Your Man
TTITLE4=Kenny Rodgers - Love Me Tender
TTITLE5=Nelson&Rogers - It's A Sin
TTITLE6=Boxcar Willie - King Of The Road
TTITLE7=Shelby  Mason - Tenderly
TTITLE8=Melanie - Nickel Song
TTITLE9=Guy Mitchell - Singin' The Blues
TTITLE10=Patsy Cline - Walking After Midnight
TTITLE11=Barbara Fairchild - Teddy Bear Song
TTITLE12=Ricky Skaggs - Are You Proud Of America
TTITLE13=Carol Ann King - Why Don't Cha
TTITLE14=Dolly Parton - Making Believe
TTITLE15=Don Williams - Ruby Tuesday
EXTD=
EXTT0=
EXTT1=
EXTT2=
EXTT3=
EXTT4=
EXTT5=
EXTT6=
EXTT7=
EXTT8=
EXTT9=
EXTT10=
EXTT11=
EXTT12=
EXTT13=
EXTT14=
EXTT15=
PLAYORDER=
